:SAMPLES-PER-SECOND 24
:FULLY-SPECIFIED
:DEGREES
278
root  -1.03966 36.6103 18.4519 174.858 74.7862 176.81
RightUpLeg  -4.82298 -14.8969 -18.8795
RightLeg  40.2246 6.8328 5.87667
RightFoot  -20.9212 1.11644 14.9041
RightToes  -1.74623e-010 0 -2.59999e-017
Spine  6.42708 2.22035 4.7952
Spine1  15.9946 3.33465 -3.95345
HEad  -37.745 50.8929 -40.2641
LeftShoulder1  1.98751 -3.06215 -24.0408
LeftArm  7.8596 0.590866 -34.8313
LeftForeArm  13.6097 -49.4379 -12.0965
LeftHand  -0.0878976 4.92863 20.799
RightShoulder  2.98803 5.29046 28.0209
RightArm  -1.31042 -4.91002 32.477
RightForeArm  122.619 76.2715 130.25
RightHand  0.16281 -7.67072 -9.15451
LeftUpLeg  -17.5932 9.84764 14.2866
LeftLeg  40.838 -5.34102 -4.52875
LeftFoot  -13.1631 -0.137784 -13.4922
LeftToes  -6.27559e-011 -2.10356e-011 8.24929e-012
279
root  -0.826982 36.7518 18.4448 172.675 75.1001 175.419
RightUpLeg  -3.88304 -13.0277 -18.996
RightLeg  40.1465 5.99456 5.12444
RightFoot  -20.1145 1.08618 15.7864
RightToes  -1.74623e-010 0 -2.59999e-017
Spine  5.76501 2.76401 3.09976
Spine1  17.7218 3.21704 -2.24321
HEad  -37.432 50.9887 -40.6753
LeftShoulder1  2.08768 -3.25552 -24.6916
LeftArm  9.4592 0.387661 -37.2205
LeftForeArm  14.8451 -45.2275 -10.2649
LeftHand  0.0346179 5.57163 24.3621
RightShoulder  3.404 5.75273 30.8735
RightArm  -4.24881 -3.85324 34.2654
RightForeArm  112.671 79.9206 105.258
RightHand  0.556962 -11.7371 -10.8914
LeftUpLeg  -15.6176 9.30678 14.1616
LeftLeg  39.5515 -5.19436 -4.18179
LeftFoot  -12.3973 -0.0537521 -13.8542
LeftToes  -6.27559e-011 -2.10356e-011 8.24929e-012
280
root  -0.361839 38.0618 18.3386 170.923 75.1409 173.908
RightUpLeg  -1.48424 -11.3964 -18.8642
RightLeg  35.3014 5.30986 3.78289
RightFoot  -12.5048 0.0990524 18.037
RightToes  -1.74623e-010 0 -2.59999e-017
Spine  4.16746 3.21916 2.95439
Spine1  17.8485 3.67307 -2.16374
HEad  -31.7054 52.7221 -36.9654
LeftShoulder1  2.09204 -3.15571 -25.2433
LeftArm  13.9069 3.4275 -39.9295
LeftForeArm  10.5721 -40.0337 -8.73767
LeftHand  -0.0870841 4.97839 23.3542
RightShoulder  3.76426 6.09503 33.3351
RightArm  -6.88538 -10.9108 38.2412
RightForeArm  128.332 79.6442 114.449
RightHand  0.582342 -12.8859 -9.70822
LeftUpLeg  -11.549 8.47784 13.3549
LeftLeg  32.7203 -4.36233 -2.64949
LeftFoot  -5.98742 0.689931 -13.9353
LeftToes  -6.27559e-011 -2.10356e-011 8.24929e-012
281
root  0.0597318 39.6935 18.2146 171.598 74.6753 174.414
RightUpLeg  0.745213 -11.7761 -18.4735
RightLeg  29.0321 5.29109 2.93953
RightFoot  -0.153472 -1.67259 17.1386
RightToes  -1.74623e-010 0 -2.59999e-017
Spine  2.52855 2.86211 3.23708
Spine1  17.1444 3.39556 -2.24628
HEad  -26.495 55.4354 -33.3409
LeftShoulder1  2.14082 -3.03237 -26.6336
LeftArm  15.0549 9.29123 -40.3057
LeftForeArm  7.47243 -38.2224 -8.36572
LeftHand  -0.222467 4.0192 18.1815
RightShoulder  3.89235 6.1849 34.289
RightArm  -4.6506 -18.0731 40.4543
RightForeArm  137.565 77.3729 130.066
RightHand  0.346839 -11.9402 -7.01378
LeftUpLeg  -8.43772 7.69614 12.7787
LeftLeg  25.0825 -3.36953 -1.37353
LeftFoot  5.92294 2.06103 -13.7592
LeftToes  -6.27559e-011 -2.10356e-011 8.24929e-012
282
root  0.340059 40.7483 18.1837 171.515 74.9063 174.13
RightUpLeg  1.76312 -12.3902 -18.2995
RightLeg  25.056 5.82492 2.74749
RightFoot  6.89694 -2.18099 13.7737
RightToes  -1.74623e-010 0 -2.59999e-017
Spine  1.49368 2.68273 2.84906
Spine1  16.6738 3.21851 -2.19272
HEad  -24.68 56.7862 -31.4682
LeftShoulder1  2.16498 -3.00159 -27.1796
LeftArm  12.4693 16.0833 -40.4384
LeftForeArm  9.45406 -40.1205 -8.84077
LeftHand  -0.28238 3.21039 14.6707
RightShoulder  3.77734 6.08316 33.52
RightArm  0.4894 -22.5945 40.5423
RightForeArm  142.115 74.2396 141.145
RightHand  -0.0115552 -9.23702 -0.783973
LeftUpLeg  -6.80387 8.05718 12.4175
LeftLeg  20.5055 -2.21486 -0.580767
LeftFoot  14.0989 2.87787 -13.1055
LeftToes  -6.27559e-011 -2.10356e-011 8.24929e-012
283
root  0.479432 41.1533 18.1762 172.004 75.9656 174.337
RightUpLeg  1.66888 -12.3795 -18.0184
RightLeg  22.7304 5.48761 2.30911
RightFoot  7.21268 -2.05604 12.8416
RightToes  -1.74623e-010 0 -2.59999e-017
Spine  1.08498 3.13279 4.08255
Spine1  16.3674 4.23178 -3.67064
HEad  -24.732 55.8199 -30.5258
LeftShoulder1  2.03626 -2.9334 -25.4665
LeftArm  11.8454 20.3584 -41.9736
LeftForeArm  12.2502 -42.4382 -9.42662
LeftHand  -0.335703 2.54313 13.458
RightShoulder  3.45562 5.78609 31.3058
RightArm  3.97308 -25.1888 40.7347
RightForeArm  146.789 69.9077 150.333
RightHand  -0.0749462 -6.0812 6.43631
LeftUpLeg  -6.16968 9.03838 12.3784
LeftLeg  18.9586 -1.12142 -0.10397
LeftFoot  13.5144 2.42017 -11.3118
LeftToes  -6.27559e-011 -2.10356e-011 8.24929e-012
284
root  0.463234 41.0208 18.1861 173.728 76.6617 176.014
RightUpLeg  1.34048 -12.8121 -17.8959
RightLeg  21.1102 4.74505 1.80952
RightFoot  7.47935 -2.4078 14.7665
RightToes  -1.74623e-010 0 -2.59999e-017
Spine  2.04034 3.36729 6.04969
Spine1  15.4354 5.15398 -5.56331
HEad  -25.2585 54.5983 -30.5187
LeftShoulder1  1.93031 -2.93399 -23.7427
LeftArm  13.004 21.7137 -42.6174
LeftForeArm  14.9344 -44.3954 -9.94004
LeftHand  -0.333185 2.37691 12.6241
RightShoulder  3.18305 5.51626 29.3693
RightArm  5.75375 -24.9395 39.6079
RightForeArm  146.263 65.8393 155.508
RightHand  -0.0787871 -5.97404 7.58101
LeftUpLeg  -6.35825 8.43627 12.7545
LeftLeg  19.2211 -0.858673 -0.00097762
LeftFoot  11.5451 2.11857 -10.7922
LeftToes  -6.27559e-011 -2.10356e-011 8.24929e-012
